# xmcd CD database file
#
# Track frame offsets:
#	183
#	11915
#	24585
#	36838
#	47115
#	60640
#	70748
#	82728
#	95838
#	109503
#	119438
#	130388
#	142053
#	158893
#	171650
#	183835
#
# Disc length: 2568 seconds
#
# Revision: 2
# Processed by: cddbd v1.5.1PL0 Copyright (c) Steve Scherf et al.
# Submitted via: CDex 1.51
#
DISCID=e10a0610
DTITLE=Patsy Cline - Best Of
DYEAR=1900
DGENRE=Country
TTITLE0=Walkin' After Midnight
TTITLE1=I Fall To Pieces
TTITLE2=Crazy
TTITLE3=Who Can I Count On
TTITLE4=She's Got You
TTITLE5=Strange
TTITLE6=When I Get Thru With You
TTITLE7=Imagine That
TTITLE8=So Wrong
TTITLE9=Heartaches
TTITLE10=Leavin' On Your Mind
TTITLE11=Sweet Dreams
TTITLE12=Faded Love
TTITLE13=When You Need A Laugh
TTITLE14=He Called Me Baby
TTITLE15=Anytime
EXTD=
EXTT0=
EXTT1=
EXTT2=
EXTT3=
EXTT4=
EXTT5=
EXTT6=
EXTT7=
EXTT8=
EXTT9=
EXTT10=
EXTT11=
EXTT12=
EXTT13=
EXTT14=
EXTT15=
PLAYORDER=
